<svg width="1200" height="720" viewBox="0 0 1200 720" fill="none" xmlns="http://www.w3.org/2000/svg">
  <defs>
    <linearGradient id="bg" x1="160" y1="80" x2="1040" y2="640" gradientUnits="userSpaceOnUse">
      <stop stop-color="#111827" />
      <stop offset="1" stop-color="#7C2D12" />
    </linearGradient>
    <linearGradient id="accent" x1="220" y1="180" x2="980" y2="560" gradientUnits="userSpaceOnUse">
      <stop stop-color="#FB923C" />
      <stop offset="1" stop-color="#FDE047" />
    </linearGradient>
  </defs>
  <rect width="1200" height="720" rx="36" fill="url(#bg)" />
  <circle cx="990" cy="150" r="150" fill="#F59E0B" fill-opacity="0.12" />
  <circle cx="210" cy="590" r="180" fill="#FB923C" fill-opacity="0.12" />
  <rect x="148" y="150" width="904" height="420" rx="28" fill="#0B1120" fill-opacity="0.58" stroke="white" stroke-opacity="0.12" />
  <rect x="190" y="204" width="250" height="24" rx="12" fill="white" fill-opacity="0.92" />
  <g fill="white" fill-opacity="0.12">
    <rect x="190" y="262" width="112" height="84" rx="16" />
    <rect x="318" y="262" width="112" height="84" rx="16" />
    <rect x="446" y="262" width="112" height="84" rx="16" />
    <rect x="574" y="262" width="112" height="84" rx="16" />
    <rect x="702" y="262" width="112" height="84" rx="16" />
    <rect x="830" y="262" width="112" height="84" rx="16" />
    <rect x="190" y="362" width="112" height="84" rx="16" />
    <rect x="318" y="362" width="112" height="84" rx="16" />
    <rect x="446" y="362" width="112" height="84" rx="16" />
    <rect x="574" y="362" width="112" height="84" rx="16" />
    <rect x="702" y="362" width="112" height="84" rx="16" />
    <rect x="830" y="362" width="112" height="84" rx="16" />
  </g>
  <rect x="190" y="262" width="240" height="184" rx="20" fill="url(#accent)" fill-opacity="0.18" stroke="url(#accent)" stroke-opacity="0.8" />
  <path d="M222 400H400" stroke="#FDE68A" stroke-width="12" stroke-linecap="round" />
  <path d="M222 356H366" stroke="#FDBA74" stroke-width="12" stroke-linecap="round" />
  <path d="M222 312H344" stroke="#E5E7EB" stroke-width="12" stroke-linecap="round" />
  <text x="190" y="560" fill="white" fill-opacity="0.96" font-family="Arial, Helvetica, sans-serif" font-size="54" font-weight="700">CipherX</text>
  <text x="190" y="606" fill="white" fill-opacity="0.72" font-family="Arial, Helvetica, sans-serif" font-size="26">Smarter scheduling with DSA</text>
</svg>