<svg width="1200" height="720" viewBox="0 0 1200 720" fill="none" xmlns="http://www.w3.org/2000/svg">
  <defs>
    <linearGradient id="bg" x1="140" y1="90" x2="1060" y2="630" gradientUnits="userSpaceOnUse">
      <stop stop-color="#111827" />
      <stop offset="1" stop-color="#7F1D1D" />
    </linearGradient>
    <linearGradient id="accent" x1="220" y1="180" x2="980" y2="560" gradientUnits="userSpaceOnUse">
      <stop stop-color="#F87171" />
      <stop offset="1" stop-color="#FCA5A5" />
    </linearGradient>
  </defs>
  <rect width="1200" height="720" rx="36" fill="url(#bg)" />
  <circle cx="990" cy="150" r="150" fill="#F87171" fill-opacity="0.12" />
  <circle cx="170" cy="580" r="180" fill="#FCA5A5" fill-opacity="0.1" />
  <rect x="150" y="150" width="900" height="420" rx="28" fill="#0B1120" fill-opacity="0.58" stroke="white" stroke-opacity="0.12" />
  <rect x="188" y="202" width="310" height="24" rx="12" fill="white" fill-opacity="0.92" />
  <rect x="188" y="260" width="180" height="236" rx="20" fill="white" fill-opacity="0.09" />
  <rect x="392" y="260" width="280" height="108" rx="20" fill="white" fill-opacity="0.09" />
  <rect x="392" y="388" width="280" height="108" rx="20" fill="white" fill-opacity="0.09" />
  <rect x="696" y="260" width="320" height="236" rx="20" fill="url(#accent)" fill-opacity="0.16" stroke="url(#accent)" stroke-opacity="0.6" />
  <path d="M480 314C480 287 501 266 528 266C555 266 576 287 576 314C576 357 528 398 528 398C528 398 480 357 480 314Z" fill="#FCA5A5" fill-opacity="0.95" />
  <circle cx="528" cy="314" r="18" fill="#7F1D1D" />
  <path d="M770 348H950" stroke="#FEE2E2" stroke-width="12" stroke-linecap="round" />
  <path d="M770 396H902" stroke="#FCA5A5" stroke-width="12" stroke-linecap="round" />
  <path d="M770 444H930" stroke="#FFFFFF" stroke-opacity="0.8" stroke-width="12" stroke-linecap="round" />
  <text x="188" y="560" fill="white" fill-opacity="0.96" font-family="Arial, Helvetica, sans-serif" font-size="50" font-weight="700">Crime Tracking</text>
  <text x="188" y="606" fill="white" fill-opacity="0.72" font-family="Arial, Helvetica, sans-serif" font-size="26">Records, patterns, and analysis</text>
</svg>