<svg width="1200" height="720" viewBox="0 0 1200 720" fill="none" xmlns="http://www.w3.org/2000/svg">
  <defs>
    <linearGradient id="bg" x1="150" y1="90" x2="1050" y2="630" gradientUnits="userSpaceOnUse">
      <stop stop-color="#0F172A" />
      <stop offset="1" stop-color="#3B0764" />
    </linearGradient>
    <linearGradient id="accent" x1="220" y1="180" x2="980" y2="560" gradientUnits="userSpaceOnUse">
      <stop stop-color="#C084FC" />
      <stop offset="1" stop-color="#22D3EE" />
    </linearGradient>
  </defs>
  <rect width="1200" height="720" rx="36" fill="url(#bg)" />
  <circle cx="1010" cy="130" r="150" fill="#C084FC" fill-opacity="0.12" />
  <circle cx="180" cy="590" r="170" fill="#22D3EE" fill-opacity="0.12" />
  <rect x="150" y="150" width="900" height="420" rx="28" fill="#0B1120" fill-opacity="0.58" stroke="white" stroke-opacity="0.12" />
  <rect x="192" y="202" width="300" height="24" rx="12" fill="white" fill-opacity="0.92" />
  <rect x="192" y="264" width="360" height="202" rx="20" fill="white" fill-opacity="0.09" />
  <rect x="584" y="264" width="422" height="202" rx="20" fill="url(#accent)" fill-opacity="0.16" stroke="url(#accent)" stroke-opacity="0.65" />
  <path d="M224 414C274 414 272 316 322 316C372 316 370 414 420 414C470 414 468 316 518 316" stroke="#C4B5FD" stroke-width="12" stroke-linecap="round" stroke-linejoin="round" />
  <rect x="624" y="312" width="60" height="60" rx="10" fill="#E9D5FF" fill-opacity="0.9" />
  <rect x="700" y="312" width="60" height="60" rx="10" fill="#BAE6FD" fill-opacity="0.9" />
  <rect x="776" y="312" width="60" height="60" rx="10" fill="#E9D5FF" fill-opacity="0.7" />
  <rect x="852" y="312" width="60" height="60" rx="10" fill="#BAE6FD" fill-opacity="0.8" />
  <rect x="624" y="388" width="60" height="60" rx="10" fill="#BAE6FD" fill-opacity="0.8" />
  <rect x="700" y="388" width="60" height="60" rx="10" fill="#E9D5FF" fill-opacity="0.8" />
  <rect x="776" y="388" width="60" height="60" rx="10" fill="#BAE6FD" fill-opacity="0.7" />
  <rect x="852" y="388" width="60" height="60" rx="10" fill="#E9D5FF" fill-opacity="0.9" />
  <text x="192" y="560" fill="white" fill-opacity="0.96" font-family="Arial, Helvetica, sans-serif" font-size="48" font-weight="700">LDPC for 5G NR</text>
  <text x="192" y="606" fill="white" fill-opacity="0.72" font-family="Arial, Helvetica, sans-serif" font-size="26">MATLAB coding and decoding</text>
</svg>