<svg width="1200" height="720" viewBox="0 0 1200 720" fill="none" xmlns="http://www.w3.org/2000/svg">
  <defs>
    <linearGradient id="bg" x1="150" y1="90" x2="1050" y2="630" gradientUnits="userSpaceOnUse">
      <stop stop-color="#0F172A" />
      <stop offset="1" stop-color="#14532D" />
    </linearGradient>
    <linearGradient id="accent" x1="220" y1="180" x2="980" y2="560" gradientUnits="userSpaceOnUse">
      <stop stop-color="#4ADE80" />
      <stop offset="1" stop-color="#A3E635" />
    </linearGradient>
  </defs>
  <rect width="1200" height="720" rx="36" fill="url(#bg)" />
  <circle cx="1020" cy="130" r="150" fill="#4ADE80" fill-opacity="0.12" />
  <circle cx="180" cy="590" r="170" fill="#A3E635" fill-opacity="0.12" />
  <rect x="150" y="150" width="900" height="420" rx="28" fill="#0B1120" fill-opacity="0.58" stroke="white" stroke-opacity="0.12" />
  <rect x="192" y="202" width="250" height="24" rx="12" fill="white" fill-opacity="0.92" />
  <rect x="192" y="262" width="196" height="224" rx="20" fill="white" fill-opacity="0.09" />
  <rect x="414" y="262" width="196" height="224" rx="20" fill="white" fill-opacity="0.09" />
  <rect x="636" y="262" width="196" height="224" rx="20" fill="url(#accent)" fill-opacity="0.14" stroke="url(#accent)" stroke-opacity="0.6" />
  <rect x="858" y="262" width="160" height="224" rx="20" fill="white" fill-opacity="0.09" />
  <path d="M228 320H326" stroke="#86EFAC" stroke-width="12" stroke-linecap="round" />
  <path d="M228 360H342" stroke="#FFFFFF" stroke-opacity="0.8" stroke-width="12" stroke-linecap="round" />
  <path d="M228 400H308" stroke="#FFFFFF" stroke-opacity="0.55" stroke-width="12" stroke-linecap="round" />
  <circle cx="684" cy="330" r="16" fill="#14532D" />
  <path d="M680 330L686 336L696 324" stroke="#DCFCE7" stroke-width="6" stroke-linecap="round" stroke-linejoin="round" />
  <circle cx="684" cy="380" r="16" fill="#14532D" />
  <path d="M680 380L686 386L696 374" stroke="#DCFCE7" stroke-width="6" stroke-linecap="round" stroke-linejoin="round" />
  <circle cx="684" cy="430" r="16" fill="#14532D" />
  <path d="M680 430L686 436L696 424" stroke="#DCFCE7" stroke-width="6" stroke-linecap="round" stroke-linejoin="round" />
  <text x="192" y="560" fill="white" fill-opacity="0.96" font-family="Arial, Helvetica, sans-serif" font-size="50" font-weight="700">Life Tracker</text>
  <text x="192" y="606" fill="white" fill-opacity="0.72" font-family="Arial, Helvetica, sans-serif" font-size="26">Routine, progress, consistency</text>
</svg>