<svg width="1200" height="720" viewBox="0 0 1200 720" fill="none" xmlns="http://www.w3.org/2000/svg">
  <defs>
    <linearGradient id="bg" x1="130" y1="90" x2="1070" y2="630" gradientUnits="userSpaceOnUse">
      <stop stop-color="#0F172A" />
      <stop offset="1" stop-color="#1E1B4B" />
    </linearGradient>
    <linearGradient id="accent" x1="220" y1="160" x2="980" y2="560" gradientUnits="userSpaceOnUse">
      <stop stop-color="#38BDF8" />
      <stop offset="1" stop-color="#F472B6" />
    </linearGradient>
  </defs>
  <rect width="1200" height="720" rx="36" fill="url(#bg)" />
  <circle cx="990" cy="140" r="150" fill="#38BDF8" fill-opacity="0.12" />
  <circle cx="190" cy="590" r="180" fill="#F472B6" fill-opacity="0.12" />
  <rect x="150" y="140" width="900" height="440" rx="30" fill="#0B1120" fill-opacity="0.62" stroke="white" stroke-opacity="0.12" />
  <rect x="188" y="192" width="280" height="26" rx="13" fill="white" fill-opacity="0.92" />
  <rect x="188" y="250" width="450" height="18" rx="9" fill="white" fill-opacity="0.22" />
  <rect x="188" y="282" width="390" height="18" rx="9" fill="white" fill-opacity="0.18" />
  <rect x="188" y="340" width="232" height="206" rx="22" fill="url(#accent)" fill-opacity="0.18" stroke="url(#accent)" stroke-opacity="0.75" />
  <rect x="448" y="340" width="232" height="206" rx="22" fill="white" fill-opacity="0.1" />
  <rect x="708" y="340" width="282" height="206" rx="22" fill="white" fill-opacity="0.1" />
  <path d="M224 476C224 476 262 434 300 414C331 398 335 364 340 340" stroke="#E0F2FE" stroke-width="14" stroke-linecap="round" />
  <rect x="478" y="374" width="160" height="18" rx="9" fill="white" fill-opacity="0.8" />
  <rect x="478" y="408" width="120" height="18" rx="9" fill="white" fill-opacity="0.42" />
  <rect x="740" y="376" width="202" height="34" rx="17" fill="#38BDF8" fill-opacity="0.82" />
  <rect x="740" y="428" width="162" height="22" rx="11" fill="white" fill-opacity="0.18" />
  <rect x="740" y="466" width="220" height="22" rx="11" fill="white" fill-opacity="0.18" />
  <text x="188" y="572" fill="white" fill-opacity="0.96" font-family="Arial, Helvetica, sans-serif" font-size="52" font-weight="700">Portfolio Website</text>
  <text x="188" y="618" fill="white" fill-opacity="0.72" font-family="Arial, Helvetica, sans-serif" font-size="26">Current project showcase</text>
</svg>